<?xml version="1.0" encoding="UTF-8"?><svg version="1.1" viewBox="0 0 24 24" xmlns="http://www.w3.org/2000/svg" xmlns:xlink="http://www.w3.org/1999/xlink"><path d="M0 0h24v24h-24Z" fill="none"></path><path fill="#fff" d="M12 14v8h-8l9.23706e-14 1.20797e-06c-6.67141e-07-4.41828 3.58172-8 8-8Zm0-1c-3.315 0-6-2.685-6-6 0-3.315 2.685-6 6-6 3.315 0 6 2.685 6 6 0 3.315-2.685 6-6 6Zm9 4h1v5h-8v-5h1v-1l3.37508e-14 4.52987e-07c-2.50178e-07-1.65685 1.34315-3 3-3 1.65685-2.50178e-07 3 1.34315 3 3 0 0 0 1.77636e-15 0 1.77636e-15v1Zm-2 0v-1 0c0-.552285-.447715-1-1-1 -.552285 0-1 .447715-1 1v1h2Z"></path></svg>