<?xml version="1.0" encoding="UTF-8"?><svg version="1.1" viewBox="0 0 20 20" xmlns="http://www.w3.org/2000/svg" xmlns:xlink="http://www.w3.org/1999/xlink"><g fill="#000"><path d="M6 10c0 1.1046-.89543 2-2 2 -1.10457 0-2-.8954-2-2 0-1.10457.89543-2 2-2 1.10457 0 2 .89543 2 2Z"></path><path d="M12 10c0 1.1046-.8954 2-2 2 -1.10457 0-2-.8954-2-2 0-1.10457.89543-2 2-2 1.1046 0 2 .89543 2 2Z"></path><path d="M16 12c1.1046 0 2-.8954 2-2 0-1.10457-.8954-2-2-2 -1.1046 0-2 .89543-2 2 0 1.1046.8954 2 2 2Z"></path></g></svg>