<?xml version="1.0" encoding="UTF-8"?><svg version="1.1" viewBox="0 0 32 32" xmlns="http://www.w3.org/2000/svg" xmlns:xlink="http://www.w3.org/1999/xlink"><path d="M21.743 12.331l-9-10c-.379-.422-1.107-.422-1.486 0l-9 10c-.264.293-.331.715-.17 1.076 .161.361.518.593.913.593h2v7c0 .552.448 1 1 1h12c.553 0 1-.448 1-1v-7h2c.395 0 .753-.232.913-.593 .161-.361.095-.782-.17-1.076Zm-9.743 3.669c-1.656 0-3-1.343-3-3 0-1.657 1.344-3 3-3 1.657 0 3 1.343 3 3 0 1.657-1.343 3-3 3Z" transform="matrix(1.33333 0 0 1.33333 0 0)" fill="#fff"></path></svg>
